<svg width="800" height="500" viewBox="0 0 800 500" fill="none" xmlns="http://www.w3.org/2000/svg">
  <!-- Background -->
  <rect width="800" height="500" fill="#F8FAFC" stroke="#E2E8F0" stroke-width="2" rx="12"/>

  <!-- Header -->
  <rect x="20" y="20" width="760" height="60" fill="#FFFFFF" stroke="#E2E8F0" rx="8"/>
  <rect x="40" y="35" width="120" height="30" fill="#3B82F6" rx="6"/>
  <text x="100" y="54" text-anchor="middle" fill="white" font-family="Inter, sans-serif" font-size="14" font-weight="600">FeedbackBin</text>

  <!-- Sidebar -->
  <rect x="20" y="100" width="200" height="360" fill="#FFFFFF" stroke="#E2E8F0" rx="8"/>
  <rect x="40" y="120" width="160" height="8" fill="#E2E8F0" rx="4"/>
  <rect x="40" y="140" width="120" height="8" fill="#E2E8F0" rx="4"/>
  <rect x="40" y="160" width="140" height="8" fill="#E2E8F0" rx="4"/>

  <!-- Main Content Area -->
  <rect x="240" y="100" width="540" height="360" fill="#FFFFFF" stroke="#E2E8F0" rx="8"/>

  <!-- Feedback Cards -->
  <rect x="260" y="120" width="500" height="80" fill="#F8FAFC" stroke="#E2E8F0" rx="6"/>
  <circle cx="285" cy="135" r="8" fill="#10B981"/>
  <rect x="305" y="130" width="200" height="10" fill="#1F2937" rx="2"/>
  <rect x="305" y="150" width="300" height="8" fill="#6B7280" rx="2"/>
  <rect x="305" y="170" width="80" height="20" fill="#3B82F6" rx="10"/>

  <rect x="260" y="220" width="500" height="80" fill="#F8FAFC" stroke="#E2E8F0" rx="6"/>
  <circle cx="285" cy="235" r="8" fill="#F59E0B"/>
  <rect x="305" y="230" width="180" height="10" fill="#1F2937" rx="2"/>
  <rect x="305" y="250" width="280" height="8" fill="#6B7280" rx="2"/>
  <rect x="305" y="270" width="60" height="20" fill="#EF4444" rx="10"/>

  <rect x="260" y="320" width="500" height="80" fill="#F8FAFC" stroke="#E2E8F0" rx="6"/>
  <circle cx="285" cy="335" r="8" fill="#8B5CF6"/>
  <rect x="305" y="330" width="220" height="10" fill="#1F2937" rx="2"/>
  <rect x="305" y="350" width="320" height="8" fill="#6B7280" rx="2"/>
  <rect x="305" y="370" width="90" height="20" fill="#10B981" rx="10"/>

  <!-- Title -->
  <text x="400" y="480" text-anchor="middle" fill="#64748B" font-family="Inter, sans-serif" font-size="16" font-weight="500">FeedbackBin Dashboard</text>
</svg>