<svg xmlns="http://www.w3.org/2000/svg" viewBox="0 0 512 512" xml:space="preserve">
  <path fill="#FFF" d="M329 513H1.04V1.102h511.795V513H329m-.5-121.684c5.164 0 10.337-.182 15.488.07 2.873.141 4.057-.954 4.92-3.563 9.994-30.245 20.088-60.457 30.164-90.675 18.63-55.874 37.262-111.748 55.902-167.619 1.93-5.785 1.582-6.387-4.413-6.387a951133.93 951133.93 0 0 0-346.344.015c-1.74 0-3.479.386-5.501.626.306 1.346.415 2.146.67 2.896 6.51 19.202 13.104 38.377 19.549 57.602 22.657 67.585 45.313 135.17 67.763 202.825 1.25 3.764 3.039 4.268 6.371 4.263 51.477-.077 102.954-.053 155.43-.053z"/>
  <path fill="#016AFF" d="M328 391.316c-51.977 0-103.454-.024-154.93.053-3.333.005-5.122-.499-6.372-4.263-22.45-67.654-45.106-135.24-67.763-202.825-6.445-19.225-13.038-38.4-19.55-57.602-.254-.75-.363-1.55-.67-2.896 2.023-.24 3.763-.626 5.502-.626 115.448-.028 230.896-.03 346.344-.015 5.995 0 6.343.602 4.413 6.387a994919.259 994919.259 0 0 0-55.902 167.619c-10.076 30.218-20.17 60.43-30.165 90.675-.862 2.609-2.046 3.704-4.919 3.563-5.151-.252-10.324-.07-15.988-.07M168.065 226.605c0 12.157-.23 24.322.119 36.47.131 4.563.874 9.394 2.614 13.57 4.41 10.58 13.805 13.21 24.166 13.254 25.98.109 51.962.134 77.941-.053 4.785-.034 8.078 1.426 11.078 5.184 5.875 7.36 12.225 14.34 18.378 21.478l1.794-.362c0-4.219-.11-8.441.03-12.656.149-4.424.539-8.841.842-13.558 5.917 0 11.393.118 16.862-.022 15.949-.41 25.053-9.526 25.167-25.342.105-14.488.248-28.986-.19-43.462-.13-4.3-1.434-8.937-3.48-12.729-4.976-9.222-13.877-10.967-23.509-10.952-41.469.06-82.939.018-124.408.043-2.493.002-5 .135-7.475.432-9.62 1.154-17.262 8.283-18.96 17.83-.579 3.258-.66 6.604-.97 10.875z"/>
  <path fill="#FDFEFF" d="M168.065 226.122c.309-3.788.39-7.134.97-10.392 1.697-9.547 9.34-16.676 18.96-17.83a63.246 63.246 0 0 1 7.474-.432c41.47-.025 82.939.018 124.408-.043 9.632-.015 18.533 1.73 23.509 10.952 2.046 3.792 3.35 8.43 3.48 12.729.438 14.476.295 28.974.19 43.462-.114 15.816-9.218 24.933-25.167 25.342-5.47.14-10.945.022-16.862.022-.303 4.717-.693 9.134-.841 13.558-.142 4.215-.03 8.437-.03 12.656l-1.795.362c-6.153-7.138-12.503-14.118-18.378-21.478-3-3.758-6.293-5.218-11.078-5.184-25.98.187-51.96.162-77.941.053-10.361-.044-19.756-2.673-24.166-13.254-1.74-4.176-2.483-9.007-2.614-13.57-.35-12.148-.119-24.313-.12-36.953m122.794 24.267c4.358 6.91 9.914 9.399 17.27 7.733 5.771-1.306 10.319-6.63 10.941-12.808.669-6.638-1.934-11.925-7.227-14.68-6.392-3.33-12.478-2.705-17.619 1.806-4.845 4.25-6.122 10.264-3.365 17.949m-34.911 8.174c10.43 1.51 20.875-9.289 15.147-21.762-2.87-6.251-10.03-9.49-16.655-7.937-7.026 1.647-11.595 7.483-11.639 14.866-.044 7.404 4.436 12.708 13.147 14.833M210.613 228.4c-.98.188-1.977.317-2.94.572-7.887 2.091-12.972 9.524-11.566 16.87 1.624 8.484 8.72 13.734 16.965 12.553 8.415-1.207 13.643-8.001 12.822-16.666-.697-7.358-4.887-11.194-15.28-13.329z"/>
  <path fill="#056CFF" d="M290.71 250.033c-2.609-7.329-1.332-13.342 3.513-17.593 5.141-4.511 11.227-5.135 17.62-1.807 5.292 2.756 7.895 8.043 7.226 14.68-.622 6.179-5.17 11.503-10.94 12.81-7.357 1.665-12.913-.823-17.418-8.09z"/>
  <path fill="#066CFF" d="M255.562 258.474c-8.326-2.036-12.806-7.34-12.762-14.744.044-7.383 4.613-13.22 11.639-14.866 6.626-1.553 13.785 1.686 16.655 7.937 5.728 12.473-4.717 23.272-15.532 21.673z"/>
  <path fill="#046CFF" d="M210.997 228.421c10.01 2.113 14.2 5.949 14.897 13.307.821 8.665-4.407 15.46-12.822 16.666-8.245 1.181-15.341-4.069-16.965-12.553-1.406-7.346 3.679-14.779 11.565-16.87.964-.255 1.96-.384 3.325-.55z"/>
</svg>