<svg xmlns="http://www.w3.org/2000/svg" viewBox="0 0 512 512">
  <!-- Symmetrical trapezoid bin with rounded corners -->
  <path
    d="M84 108
       Q80 96 92 96h328q12 0 8 12l-64 376
       q-2 12-14 12H162q-12 0-14-12L84 108z"
    fill="#006CFF"
  />

  <!-- Chat bubble (slightly lower so dots stay centered vertically) -->
  <path
    d="M144 236a36 36 0 0 1 36-36h152a36 36 0 0 1 36 36v80a36 36 0 0 1-36 36h-70l-30 36a5 5 0 0 1-8-4v-32h-44a36 36 0 0 1-36-36v-80z"
    fill="#FFFFFF"
  />

  <!-- Feedback dots -->
  <circle cx="200" cy="276" r="18" fill="#006CFF"/>
  <circle cx="256" cy="276" r="18" fill="#006CFF"/>
  <circle cx="312" cy="276" r="18" fill="#006CFF"/>
</svg>
