<svg xmlns="http://www.w3.org/2000/svg" xml:space="preserve" fill="currentColor" viewBox="0 0 512 384">
  <path d="M385 385c-85.023 0-170.045 0-255.63-.363C92.194 274.468 55.593 164.658 18.95 54.862 13.061 37.21 6.988 19.62 1 2c1.333-.333 2.666-.953 4-.957C26 .982 47 1 68 1c146.833 0 293.667-.003 440.5.041 1.5 0 3 .626 4.17 1.61-.782 1.9-1.261 3.14-1.681 4.4C468.989 133.033 426.995 259.016 385 385m-1.325-253.912c-5.464-16.01-16.8-24.094-33.838-24.095-61.962-.005-123.925-.007-185.887 0-20.887.003-34.79 13.807-34.834 34.637-.042 20.487-.024 40.975-.005 61.462.02 22.145 13.673 35.808 35.808 35.818 39.476.016 78.952.045 118.428-.07 3.304-.009 5.475.955 7.597 3.487 9.198 10.975 18.604 21.776 27.949 32.63.9 1.045 1.896 2.01 3.465 3.663l1.955-39.706c8.844 0 17.164.027 25.485-.005 21.053-.082 35.03-14.057 35.08-35.143.048-20.155.063-40.31-.034-60.463-.019-3.807-.63-7.61-1.17-12.215z"/>
  <path d="M239.736 159.846c6.582-7.754 14.587-10.415 23.902-7.458 8.255 2.62 13.323 8.536 14.603 17.24 1.306 8.89-1.948 16.003-9.235 21.128-8.007 5.63-19.696 4.628-26.678-2.056-8.022-7.68-9.072-18.317-2.592-28.854zm-49.658-8.627c11.64 1.238 18.498 6.488 21.108 15.824 2.382 8.524-.497 17.31-7.467 22.786-6.786 5.332-16.538 6.074-23.95 1.823-7.88-4.52-12.119-13.472-10.644-22.482 1.386-8.463 8.05-15.417 16.599-17.284 1.297-.283 2.623-.44 4.354-.667zm155.018 22.604c-1.306 10.96-8.078 18.614-17.505 20.21-9.786 1.657-19.116-2.954-23.347-11.539-4.303-8.729-2.537-18.99 4.81-25.557 6.663-5.954 14.47-7.401 22.747-3.924 8.887 3.734 13.207 10.748 13.295 20.81z"/>
</svg>
