<svg xmlns="http://www.w3.org/2000/svg" width="24" height="24" viewBox="0 0 24 24" fill="none" stroke="currentColor" stroke-width="2" stroke-linecap="round" stroke-linejoin="round">
  <path d="m12.83 2.18a2 2 0 0 0-1.66 0L2.6 6.08a1 1 0 0 0 0 1.83l8.58 3.91a2 2 0 0 0 1.66 0l8.58-3.9a1 1 0 0 0 0-1.83Z"/>
  <path d="m22 12.18-8.58-3.9a2 2 0 0 0-1.66 0l-8.58 3.9a1 1 0 0 0 0 1.82l8.58 3.9a2 2 0 0 0 1.66 0l8.58-3.9a1 1 0 0 0 0-1.82Z"/>
  <path d="M2 17.27 11 21"/>
  <path d="m21 17.27-9 3.73"/>
</svg>